<svg width="32" height="32" viewBox="0 0 32 32" fill="none" xmlns="http://www.w3.org/2000/svg">
<path opacity="0.3" d="M22.553 4.66659L20.713 2.79993L18.873 4.66659C19.4187 5.02782 20.0586 5.22045 20.713 5.22045C21.3675 5.22045 22.0074 5.02782 22.553 4.66659Z" fill="#65184E"/>
<path opacity="0.3" d="M26.4129 12.18L28.2596 10.34L26.4196 8.5C26.0573 9.04762 25.8648 9.69005 25.8663 10.3467C25.8627 10.9985 26.0529 11.6366 26.4129 12.18Z" fill="#65184E"/>
<path opacity="0.3" d="M7.46695 16.0533L5.62695 17.8866L7.41362 19.6733C7.77032 19.1392 7.96512 18.5134 7.97458 17.8712C7.98404 17.2289 7.80777 16.5977 7.46695 16.0533Z" fill="#65184E"/>
<path opacity="0.3" d="M11.334 23.5933L13.1673 25.4267L15.0073 23.5933C14.4624 23.2335 13.8237 23.0417 13.1707 23.0417C12.5176 23.0417 11.879 23.2335 11.334 23.5933Z" fill="#65184E"/>
<path opacity="0.3" d="M16.9467 12.1133C16.683 12.1126 16.4218 12.1641 16.1781 12.2648C15.9344 12.3655 15.713 12.5134 15.5267 12.7C15.2477 12.9799 15.0579 13.3363 14.9813 13.7241C14.9047 14.1119 14.9447 14.5136 15.0963 14.8787C15.2478 15.2437 15.5042 15.5557 15.8329 15.7751C16.1617 15.9946 16.5481 16.1117 16.9434 16.1117C17.3386 16.1117 17.725 15.9946 18.0538 15.7751C18.3825 15.5557 18.6389 15.2437 18.7905 14.8787C18.942 14.5136 18.982 14.1119 18.9054 13.7241C18.8288 13.3363 18.639 12.9799 18.36 12.7C17.9853 12.3248 17.4769 12.1138 16.9467 12.1133Z" fill="#65184E"/>
<path opacity="0.3" d="M9.39944 25.4331L4.68457 30.1464L5.62721 31.0893L10.3421 26.3761L9.39944 25.4331Z" fill="#65184E"/>
<path opacity="0.3" d="M4.68097 20.717L1.85254 23.5455L2.79535 24.4883L5.62377 21.6599L4.68097 20.717Z" fill="#65184E"/>
<path opacity="0.3" d="M7.0437 23.075L3.27246 26.8463L4.21527 27.7891L7.98651 24.0178L7.0437 23.075Z" fill="#65184E"/>
<path d="M30.1402 10.3401L24.5202 4.72006L20.7136 0.913391L3.74023 17.8867L7.45357 21.6001L9.40023 23.5467L13.1669 27.3334L16.9402 23.5667L26.3669 14.1134L30.1402 10.3401ZM26.4136 12.1801C26.0536 11.6367 25.8633 10.9985 25.8669 10.3467C25.8654 9.6901 26.0579 9.04768 26.4202 8.50006L28.2602 10.3401L26.4136 12.1801ZM20.7136 2.80006L22.5536 4.66672C22.0079 5.02795 21.368 5.22058 20.7136 5.22058C20.0592 5.22058 19.4192 5.02795 18.8736 4.66672L20.7136 2.80006ZM5.6269 17.8867L7.4669 16.0534C7.80771 16.5978 7.98399 17.2291 7.97453 17.8713C7.96507 18.5135 7.77027 19.1393 7.41357 19.6734L5.6269 17.8867ZM11.3336 23.5934C11.8785 23.2336 12.5172 23.0417 13.1702 23.0417C13.8233 23.0417 14.4619 23.2336 15.0069 23.5934L13.1669 25.4267L11.3336 23.5934ZM15.9602 22.6667C15.1543 22.0656 14.1757 21.7409 13.1702 21.7409C12.1648 21.7409 11.1862 22.0656 10.3802 22.6667L8.38023 20.6667C8.98366 19.8743 9.31486 18.9082 9.32447 17.9122C9.33408 16.9163 9.02159 15.9439 8.43357 15.1401L17.9202 5.59339C18.7268 6.19608 19.7067 6.52173 20.7136 6.52173C21.7204 6.52173 22.7003 6.19608 23.5069 5.59339L25.4669 7.54672C24.8642 8.3533 24.5386 9.33318 24.5386 10.3401C24.5386 11.3469 24.8642 12.3268 25.4669 13.1334L15.9602 22.6667Z" fill="#65184E"/>
<path d="M19.3331 11.76C18.7869 11.2155 18.0688 10.8772 17.3011 10.8029C16.5334 10.7285 15.7637 10.9227 15.1231 11.3523C14.4826 11.7819 14.0108 12.4204 13.7883 13.1589C13.5657 13.8973 13.6061 14.6901 13.9026 15.4021C14.1991 16.1141 14.7334 16.7013 15.4143 17.0635C16.0952 17.4258 16.8807 17.5407 17.6368 17.3886C18.393 17.2366 19.073 16.8271 19.561 16.2298C20.049 15.6326 20.3149 14.8846 20.3131 14.1133C20.3112 13.23 19.9587 12.3836 19.3331 11.76ZM15.5598 15.5266C15.1853 15.1516 14.9749 14.6433 14.9749 14.1133C14.9749 13.5833 15.1853 13.075 15.5598 12.7C15.8392 12.4183 16.1959 12.2261 16.5848 12.1478C16.9737 12.0694 17.3771 12.1085 17.7437 12.26C18.1103 12.4115 18.4236 12.6686 18.6437 12.9986C18.8638 13.3286 18.9808 13.7166 18.9798 14.1133C18.9808 14.51 18.8638 14.898 18.6437 15.228C18.4236 15.558 18.1103 15.8151 17.7437 15.9666C17.3771 16.1181 16.9737 16.1572 16.5848 16.0789C16.1959 16.0005 15.8392 15.8083 15.5598 15.5266Z" fill="#65184E"/>
</svg>
