<svg width="56" height="57" viewBox="0 0 56 57" fill="none" xmlns="http://www.w3.org/2000/svg">
<ellipse cx="28" cy="28.2787" rx="28" ry="28.1302" fill="url(#paint0_linear)"/>
<g style="mix-blend-mode:multiply" opacity="0.3">
<g style="mix-blend-mode:multiply">
<path d="M27.9993 40.0001L17.3326 29.3335C15.889 27.8884 15.0781 25.9294 15.0781 23.8868C15.0781 21.8442 15.889 19.8852 17.3326 18.4401C18.7486 17.0422 20.652 16.2485 22.6417 16.2261C24.6314 16.2037 26.5521 16.9544 27.9993 18.3201C29.4656 16.9365 31.4178 16.1862 33.4334 16.2315C35.4489 16.2769 37.3655 17.1143 38.768 18.5624C40.1706 20.0106 40.9464 21.953 40.9272 23.9689C40.9081 25.9849 40.0957 27.9122 38.6659 29.3335L27.9993 40.0001Z" fill="#65184E"/>
</g>
</g>
<path d="M27.9993 40.0001L17.3326 29.3335C15.889 27.8884 15.0781 25.9294 15.0781 23.8868C15.0781 21.8442 15.889 19.8852 17.3326 18.4401C18.7486 17.0422 20.652 16.2485 22.6417 16.2261C24.6314 16.2037 26.5521 16.9544 27.9993 18.3201C29.4656 16.9365 31.4178 16.1862 33.4334 16.2315C35.4489 16.2769 37.3655 17.1143 38.768 18.5624C40.1706 20.0106 40.9464 21.953 40.9272 23.9689C40.9081 25.9849 40.0957 27.9122 38.6659 29.3335L27.9993 40.0001ZM22.6659 18.2001C21.9227 18.1958 21.1861 18.3398 20.4993 18.6237C19.8125 18.9076 19.1892 19.3257 18.6659 19.8535C17.6139 20.919 17.024 22.3561 17.024 23.8535C17.024 25.3508 17.6139 26.7879 18.6659 27.8535L27.9993 37.1868L37.3326 27.8535C37.864 27.3323 38.2854 26.7096 38.5716 26.0225C38.8579 25.3354 39.0034 24.5978 38.9993 23.8535C38.9965 22.7347 38.6627 21.6418 38.0399 20.7125C37.417 19.7832 36.533 19.059 35.4993 18.6312C34.4655 18.2035 33.3283 18.0913 32.2309 18.3088C31.1335 18.5263 30.125 19.0638 29.3326 19.8535L27.9993 21.1868L26.6659 19.8535C26.1409 19.3281 25.5173 18.9116 24.8308 18.6278C24.1444 18.3441 23.4087 18.1988 22.6659 18.2001Z" fill="#65184E"/>
<defs>
<linearGradient id="paint0_linear" x1="0" y1="0.148438" x2="56.2599" y2="56.1478" gradientUnits="userSpaceOnUse">
<stop stop-color="white"/>
<stop offset="1" stop-color="#CDCDCD" stop-opacity="0"/>
</linearGradient>
</defs>
</svg>
